# xmcd CD database file
#
# Track frame offsets:
#	150
#	23995
#	50965
#	75672
#	108109
#	134032
#	161229
#	189182
#
# Disc length: 2944 seconds
#
# Revision: 0
# Processed by: cddbd v1.5.1PL0 Copyright (c) Steve Scherf et al.
# Submitted via: CDex 1.51
#
DISCID=6a0b7e08
DTITLE=Gilda Razani sub.vision - bazaar
DYEAR=2005
DGENRE=Jazz
TTITLE0=Newrusi Cats
TTITLE1=Ormulu
TTITLE2=Bazaar
TTITLE3=Sarvahouse
TTITLE4=Sartschubeh
TTITLE5=Radio Blues
TTITLE6=Loretta's Sinfonia
TTITLE7=Reverie
EXTD=YEAR: 2005
EXTT0=
EXTT1=
EXTT2=
EXTT3=
EXTT4=
EXTT5=
EXTT6=
EXTT7=
PLAYORDER=
